<?xml version="1.0" encoding="utf-8"?>
<!-- Generator: Adobe Illustrator 27.6.1, SVG Export Plug-In . SVG Version: 6.00 Build 0)  -->
<svg fill="#63513D" class="header-logo" version="1.1" width="1316px" height="341px" xmlns="http://www.w3.org/2000/svg" xmlns:xlink="http://www.w3.org/1999/xlink" x="0px" y="0px"
	 viewBox="0 0 1316.75 341.73" style="enable-background:new 0 0 1316.75 341.73;" xml:space="preserve">
<g id="Visual">
	<g>
		<path d="M195.52,142.36c-11.29,11.75-10.27,18.52-22.18,23.09c-2.99,1.13-6.66,2.36-11.35,3.44
			c-2.76-8.52-9.7-16.98-17.04-16.98c-5.08,0-10.96,2.65-17.73,5.64c-7.95,3.5-15.23,7.51-17.55,9.03l3.11,4.17
			c2.37-1.3,9.2-4.69,16.03-7.62c5.93-2.54,11.29-4.63,14.89-4.63c5.82,0,9.6,6.61,11.69,11.91c-7.62,1.81-20.15,2.25-23.93,2.25
			c-1.75,0-2.38,0.29-2.99,0.8c-0.57,0.51-1.02,1.4-1.3,2.65l-0.45,1.92h4.06c21.1,0,41.04-3.33,53.85-11.12
			c1.81,0.5,3.39,0.84,5.42,0.84c7.33,0,14.91-4,19.64-7.67c1.7-1.3,2.09-2.48,2.09-3.78c0-0.62-0.06-1.19-0.12-1.76l-0.22-2.2
			c-6.77,5.36-12.41,9.37-19.41,9.37c-1.24,0-2.15-0.11-2.88-0.34c6.83-10.95,12.93-20.66,27.89-28.56
			c-1.58-0.96-3.84-2.43-5.02-3.22C206.19,132.14,200.43,137.22,195.52,142.36z"/>
		<path d="M172.21,145.63c-4.8,0-4.35-8.19-4.69-14.67c-16.93,1.63-27.54,6.66-39.18,12.92l1.36,5.19
			c10.55-6.32,20.71-9.93,31.49-11c0.12,6.2,2.77,14.51,9.83,14.51c7.56,0,16.75-11.86,27.54-25.75l2.83-3.67
			c-1.47-1.13-3.1-2.15-4.12-3.1C186.21,134.29,176.62,145.63,172.21,145.63z"/>
		<path d="M142.64,57.46c-2.77,0.56-4.8,1.07-7.23,1.07c-1.58,0-3.39-0.23-5.53-0.73
			c-1.64-0.4-3.39-0.74-5.86-0.74c-4.46,0-9.26,1.69-12.54,4.85c-5.99,5.7-6.32,11.85-6.72,17.32c-0.5,7.29-1.86,9.1-5.8,14.4
			c-3.22,4.34-7.63,10.05-11.01,16.09c1.08,0.5,4.63,2.42,5.87,3.1c3.89-5.86,9.31-13.09,12.86-18.57
			c3.22-4.96,4.52-7.11,4.74-13.77c0.06-1.13,0.06-2.2,0.17-3.28c0.29-3.44,1.19-6.94,4.47-10.16c2.42-2.44,5.92-3.67,9.43-3.67
			c3.38,0,5.36,0.96,8.29,0.96c2.09,0,3.62-0.51,4.96-1.01l1.08-0.4l-2.6,6.21l6.09,2.48c-3.89,2.42-12.42,12.86-12.42,25.23
			c0,4.45,0.68,8.57,1.64,12.24c0.11,0.39,0.33,0.79,0.95,0.79c0.57,0,0.97-0.34,1.02-0.95l0.06-1.3c0.18-3.78,0.45-9.76,1.97-15.12
			c2.54-9.03,9.37-17.5,16.21-21.57l-9.71-4.23l4.17-10.22L142.64,57.46z"/>
		<path d="M171.98,16.32c-3.67,0-4.68,3.55-4.68,5.53c0,1.58,0.56,3.45,2.54,3.45c1.63,0,3.66-1.18,5.24-2.49
			c1.53-1.24,2.54-2.25,2.54-3.27c0-0.95-0.9-1.86-2.26-2.48C174.42,16.6,173.23,16.32,171.98,16.32z"/>
		<polygon points="149.52,88 146.81,93.2 175.65,93.2 173.51,88 		"/>
		<path d="M116.16,40.14c1.52-0.91,2.82-2.2,2.82-3.56c0-0.62-0.27-1.24-0.9-1.81
			c-1.07-1.01-2.54-1.52-3.78-1.52c-2.83,0-4.29,2.65-4.29,5.08c0,1.86,0.91,2.93,2.65,2.93C113.73,41.27,114.98,40.81,116.16,40.14
			z"/>
		<path d="M283.92,143.72l2.76,1.92c0.39,0.28,0.68,0.45,1.02,0.45c0.57,0,0.96-0.56,0.96-1.01
			c0-0.28-0.12-0.57-0.45-0.85c-8.25-7.51-17.11-16.65-25.41-25.46c-6.49-6.94-13.15-14.27-19.02-21.67
			c-0.4-0.51-0.73-0.74-1.19-0.74c-0.67,0-1.01,0.45-1.01,0.96c0,0.79,0.56,1.74,1.97,4.12c4.28,7.28,9.59,14.62,16.14,21.5
			C266.75,130.44,275.05,137.44,283.92,143.72z"/>
		<path d="M248.42,245.71h-6.72c-1.75,0-2.93,0.62-3.78,1.64c-0.68,0.84-1.13,1.92-1.13,3.39v73.88
			c0,1.47,0.45,2.54,1.13,3.39c0.85,1.02,2.03,1.64,3.78,1.64h6.72c1.75,0,2.93-0.62,3.78-1.64c0.68-0.84,1.13-1.92,1.13-3.39
			v-73.88c0-1.47-0.45-2.54-1.13-3.39C251.35,246.33,250.17,245.71,248.42,245.71z"/>
		<path d="M131.74,71.35c0-0.73-0.33-1.47-1.18-2.03c-0.95-0.68-2.14-0.96-3.21-0.96
			c-2.38,0-3.33,1.41-3.79,2.88c-0.22,0.68-0.27,1.35-0.27,1.92c0,2.03,0.9,3.44,2.37,3.44C127.68,76.6,131.74,73.78,131.74,71.35z"
			/>
		<path d="M53.67,140.67l0.41,2.42c0.16,1.02,0.56,1.86,1.4,2.26c1.02,0.51,2.49,0.57,5.03,0.57
			c6.43,0,11.12-0.79,13.83-1.47c6.94,10.32,16.48,14.28,25.68,14.28c7.85,0,15.8-2.88,23.42-7.06l-1.42-5.14
			c-7.44,4.19-15.17,6.95-22,6.95c-7.62,0-14.4-3.28-20.04-11.8c-2.37-3.6-4.23-8.12-6.5-12.13c-2.71-4.74-5.64-7.28-10.77-7.28
			c-4.69,0-9.26,1.93-14.11,4.01l0.22,1.07c0.39,1.75,1.08,2.99,2.72,2.99c0.73,0,1.47-0.34,1.86-0.45
			c2.71-0.85,4.68-1.58,7.45-1.58c4.23,0,6.26,2.48,9.14,8.58l1.08,2.26c-2.94,1-9.82,1.52-14.95,1.52H53.67z"/>
		<path d="M289.56,266.99c-19.59,0-30.6,15.3-30.6,31.44c0,17.22,11.8,32.35,30.7,32.35
			c9.44,0,18.69-3.56,24-9.82c2.31-2.72,4.18-6.5,4.18-8.81c0-0.79-0.17-1.47-0.62-1.97c-0.45-0.57-1.13-0.91-2.31-0.91h-9.08
			c-1.81,0-3.05,0.67-3.96,2.04c-2.65,3.89-6.48,5.93-12.13,5.93c-8.47,0-13.95-6.44-14.34-13.5h39.4c1.74,0,3-0.39,3.84-1.24
			c0.96-0.9,1.41-2.2,1.41-4.62c0-7.4-2.31-15.08-7.17-20.94C307.9,271,300.23,266.99,289.56,266.99z M275.5,291.71
			c0.74-6.94,6.05-12.13,14.11-12.13c7.91,0,13.38,5.19,14.12,12.13H275.5z"/>
		<path d="M266.48,29.81h0.91c0,0.39-0.06,0.85-0.06,1.24c0,6.38,3.28,11.12,11.35,11.12
			c4.96,0,12.76-2.49,20.09-4.97c6.09-2.09,11.68-4.23,14.45-5.02V25.4c-3.16,0.96-9.59,3.44-16.25,5.75
			c-7,2.43-13.89,4.64-17.9,4.64c-4.4,0-5.64-2.43-5.64-5.88c0-7.11,4.46-17.32,7.28-23.14h-6.83c-3.55,6.89-17.55,28.96-25.11,38.1
			l4.34,4.69C257.16,45.05,261.62,37.37,266.48,29.81z"/>
		<path d="M218.66,29.7c-5.7-5.48-10.04-11.69-12.81-14.68C199.69,8.3,191.74,0,178.65,0
			c-12.65,0-21,8.24-23.71,15.36c-0.8,2.04-1.41,4.51-1.98,5.42c-1.24,2.03-6.83,11.57-9.14,15.35h10.44l-5.08,9.6
			c5.92-1.31,10.15-2.27,15.8-2.27c5.02,0,8.64,1.19,10.22,4.35c2.94,5.87,2.94,23.64,7.9,37.03c4.62,12.59,15.92,24.9,28.62,34.31
			l0.56,0.18c0.62,0,1.01-0.46,1.01-0.91c0-0.34-0.11-0.56-0.39-0.85c-10.62-10.61-19.25-22.35-23.87-35.22
			c-4.57-12.53-3.84-30.14-7.85-37.99c-2.65-5.19-8.29-6.55-13.49-6.55c-4.17,0-8.07,0.85-9.88,1.24l4.58-7.74h-7.74
			c1.63-2.88,3.34-5.53,4.18-7.11c0.73-1.36,1.02-3.05,1.92-5.36c2.94-7.4,9.43-12.09,17.9-12.09c10.61,0,16.82,6.83,22.98,13.67
			c2.82,3.15,7.46,9.76,12.81,14.67c3.67,3.39,10.66,7.16,21.44,18.29c6.22,6.43,13.44,14.79,21.06,25.97
			c27.26,39.91,45.16,75.07,55.14,102.5l-0.17,0.11c-28.62-19.42-53.39-37.76-73.38-60.39c-14.17-16.09-26.47-34.71-37.2-58.49
			c-0.73-1.57-1.36-3.04-2.04-4.56c-0.27-0.62-0.56-0.79-1.01-0.79c-0.57,0-0.97,0.39-0.97,0.95c0,0.62,0.29,1.98,0.9,4.68
			c5.71,24.61,21.51,46.68,38.39,65.03c16.82,18.23,35.85,33.93,51.48,45.32l12.2,34.89c0.28,0.85,0.61,1.74,0.61,2.6
			c0,0.62-0.16,1.13-0.55,1.47c-0.34,0.33-0.79,0.51-1.81,0.51h-3.67c-1.58,0-2.2-0.23-2.76-0.68c-0.57-0.45-0.97-1.13-1.24-1.92
			c-1.07-3.27-7.52-21.62-8.75-25.34c-0.22-0.68-0.62-0.9-1.07-0.9c-0.56,0-0.95,0.45-0.95,0.96c0,0.45,0.17,0.96,0.45,2.54
			c1.63,8.35,3.55,17.73,4.34,21.28c0.35,1.65,0.74,3.17,0.74,4.3c0,1.01-0.23,1.58-1.07,2.42l-3.79,3.84
			c-0.9,0.91-1.4,1.13-2.14,1.13c-0.91,0-1.64-0.61-1.98-2.19c-4.29-20.04-10.78-44.89-12.47-51.77c-0.4-1.53-0.68-2.38-1.58-2.38
			c-0.79,0-1.08,0.57-1.08,1.25c0,0.51,0.11,1.13,0.18,1.58c1.01,7.11,5.13,33.03,9.59,56.68c0.79,4.07,2.31,6.32,5.82,6.32
			c1.58,0,3.1-0.62,4.51-1.99c2.31-2.31,2.99-2.93,5.76-5.64c1.98-1.92,3.33-2.71,6.71-2.71h8.36c1.97,0,3.05-0.5,4-1.41
			c0.91-0.85,1.47-2.03,1.47-3.72c0-1.74-0.45-3.16-1.07-4.91c-2.14-5.75-9.03-25.22-11.05-30.7l0.16-0.11
			c7.06,5.36,17.33,12.19,21.85,12.19c1.4,0,2.25-0.62,2.25-2.82c0-10.39-17.27-53.11-56.73-111.93
			C242.32,45.22,223.86,34.66,218.66,29.7z"/>
		<path d="M268.22,68.87c7.12-2.94,13.49-4.85,19.24-4.85c8.07,0,14.68,0,25.74-2.6v-5.19
			c-6.21,1.13-12.81,2.48-17.1,2.48c-2.54,0-3.28-0.34-3.28-1.18c0-0.5,0.34-0.85,1.3-1.24c6.77-2.88,18.91-7.74,25.91-10.28v-6.88
			c-14.06,5.19-38.72,15.4-55.54,24.55C264.95,64.23,267.89,68.36,268.22,68.87z"/>
		<path d="M75.35,67.96c-7.95,9.42-12.13,17.05-19.08,33.98c1.13-0.12,2.77-0.23,4.58-0.23
			c0.91,0,1.64,0,2.82,0.06l0.84-1.81c3.9-8.36,9.15-19.64,16.49-28.33l2.54-2.99c7.57-8.87,12.25-14.12,15.19-26.19
			c1.02-4.29,1.86-8.13,4.74-10.89c2.6-2.48,5.88-3.56,9.2-3.56c2.82,0,4.92,0.68,7.96,1.97c2.76,1.18,3.78,1.41,6.72,1.41
			c1.01,0,1.74-0.06,2.42-0.11l-3.95,5.31l5.36,3.78c-6.72,1.97-10.28,8.47-11.46,11.46c-0.22,0.62-0.34,1.01-0.34,1.41
			c0,0.45,0.23,0.9,0.9,0.9c0.74,0,1.3-0.56,2.26-1.69c3.28-3.96,5.88-6.66,17.95-10.44l-8.53-6.44l6.44-9.42h-6.04
			c-3.83,0-6.37-0.06-9.71-1.58c-4.52-2.09-6.83-2.99-10.84-2.99c-4.91,0-9.37,1.75-13.04,5.13c-4.23,3.9-5.54,9.1-7.06,14.79
			c-1.18,4.41-2.6,9.26-5.75,13.72C83.31,58.99,81.4,60.85,75.35,67.96z"/>
		<path d="M26.47,46.79c-13.83,0-19.7,6.66-19.7,11.12C2.65,59.61,0,64.18,0,68.41
			c0,8.41,6.15,14.4,14.28,14.4c2.71,0,5.48-1.08,7.4-2.54c1.41,0.5,3.21,0.78,5.07,0.78c3.9,0,8.24-1.36,11.3-5.81
			c0.45,0.06,0.85,0.06,1.3,0.06c4.96,0,9.26-3.28,11.51-7.57c0.56-1.06,0.79-1.92,0.79-2.53c0-0.62-0.28-1.13-0.9-1.13
			c-0.79,0-0.91,0.74-2.32,2.03c-3.16,2.88-8.01,3.96-12.98,3.96c-2.43,3.55-5.42,5.42-8.86,5.42c-2.54,0-4.51-0.68-6.55-2.03
			c-1.64,1.81-3.67,2.54-5.64,2.54c-4.46,0-7.62-3.11-7.62-7.63c0-3.16,2.03-5.98,4.85-7.06c0.5-5.59,6.48-9.37,13.94-9.37
			c0.96,0,1.92,0.05,2.94,0.17c1.13-1.8,3.84-3.72,7.68-4.23c0.79-0.11,1.4-0.17,1.86-0.39c0.45-0.23,0.67-0.68,0.67-1.18
			c0-0.45-0.17-0.85-0.61-1.13c-0.39-0.23-1.08-0.34-1.86-0.5c-3.56-0.68-7.79-2.88-9.94-8.24c-8.53,0-14.78-6.84-14.78-14.51v-0.52
			c-2.83-1.13-4.74-3.84-4.74-7.05c0-4.24,3.33-7.62,7.56-7.62c2.54,0,4.74,1.24,6.16,3.1c1.18-0.34,2.53-0.45,3.83-0.45
			c6.32,0,13.1,4.01,14.39,11.8c8.13,0.74,10.05,7.62,10.57,10.5c0.27,1.47,0.5,2.71,1.47,2.71c1.01,0,1.24-1.13,1.58-2.65
			c0.62-2.89,1.69-5.2,3.84-7c0-7.39,5.53-13.77,13.38-13.77c1.18-2.6,3.78-4.4,6.88-4.4c4.24,0,7.62,3.27,7.62,7.62
			c0,2.54-1.18,4.74-3.05,6.09c0.4,1.47,0.67,2.77,0.67,4.01c0,4.75-2.82,8.07-8.01,9.82c-0.68,2.89-1.92,5.48-3.95,7.4
			c-3.39,3.28-6.83,3.28-6.83,4.63c0,0.73,0.5,1.19,1.92,1.19c6.27,0,12.42-3.51,13.15-9.32c5.99-2.03,9.6-8.08,9.6-12.87
			c0-1.24-0.11-2.31-0.62-3.33c1.64-1.57,3.56-4.28,3.56-8.29c0-3.5-1.53-7.05-4.23-9.66C83.87,1.53,80.54,0,76.65,0
			c-5.64,0-9.31,3.05-11.41,6.04c-6.15,0-14.1,6.83-14.1,16.6h-0.85c-0.56-3.39-4.07-5.64-6.99-5.82
			C40.92,9.71,35.56,3.62,26.75,3.62c-1.01,0-2.25,0.06-3.33,0.22C20.82,1.47,17.95,0,13.94,0C6.26,0,0,6.15,0,13.94
			c0,4.86,2.2,8.18,6.38,11.13l-0.06,0.91c0,6.2,6.77,15.91,16.82,15.91c0,1.58,1.97,3.73,4.18,4.12v0.79H26.47z"/>
		<path d="M178.31,293.57l-12.81-3.28c-5.31-1.35-7.79-2.32-7.79-5.58c0-3.17,2.83-5.71,9.37-5.71
			c3.84,0,7.34,0.85,9.6,3.22c1.86,1.97,1.52,2.99,2.99,3.78c0.91,0.45,1.92,0.45,3.5,0.45h6.38c1.02,0,1.75-0.17,2.31-0.79
			c0.46-0.51,0.73-1.3,0.73-2.6c0-2.94-1.91-6.72-5.3-9.6c-4.52-3.89-11.63-6.48-20.21-6.48c-15.46,0-25.62,7.34-25.62,19.07
			c0,4.18,1.52,7.56,4,10.21c2.88,3.11,7,5.26,12.98,6.78l12.93,3.26c3.55,0.91,6.72,1.99,6.72,5.08c0,4.8-5.08,6.43-10.51,6.43
			c-2.65,0-5.41-0.5-7.67-1.63c-1.58-0.79-2.93-1.91-3.9-3.44c-0.84-1.3-1.13-2.26-2.42-2.99c-0.79-0.46-1.75-0.51-3.05-0.51h-7
			c-1.52,0-2.25,0.45-2.76,1.07c-0.51,0.62-0.68,1.52-0.68,2.43c0,2.25,0.79,5.07,2.65,7.62c4.29,5.75,13.26,10.39,24.72,10.39
			c11.29,0,26.92-4.69,26.92-19.82c0-3.9-1.13-7.23-3.21-9.94C188.52,297.58,184.74,295.22,178.31,293.57z"/>
		<path d="M49.39,47.58c2.99,4.35,8.01,12.76,12.76,23.94c0.84-1.42,3.38-4.85,4.4-5.93
			c-4.35-8.81-11.46-17.22-14.57-20.54L49.39,47.58z"/>
		<path d="M188.86,111.99c-3.38,1.47-11.17,4.28-18.9,4.28c-3.85,0-7.06-0.33-10.62-0.79
			c-4.4-0.56-8.58-1.07-12.13-1.07c-5.93,0-13.27,0.57-20.38,5.59l3.11,4.07c4.85-2.31,12.7-3.44,16.59-3.44
			c3.56,0,7.22,0.39,10.61,0.84c3.84,0.51,8.3,1.07,12.98,1.07c10.62,0,21.01-5.64,22.64-6.66
			C191.46,114.75,189.82,113.17,188.86,111.99z"/>
		<path d="M120,119.73l-3.27-4.24c-12.65,4.86-26.7,12.7-26.7,20.72c0,4.57,3.39,8.18,11,8.18
			c11.18,0,23.09-5.64,32.64-10.89l-1.36-1.86c-0.79-1.14-1.47-1.47-2.54-1.47c-0.68,0-1.42,0.27-2.03,0.56
			c-8.18,4.01-17.05,8.02-25.29,8.02c-4.75,0-5.93-1.46-5.93-3.51C96.52,129.49,112.21,122.82,120,119.73z"/>
		<path d="M228.65,269.14h-10.21v-18.4c0-1.47-0.46-2.54-1.13-3.39c-0.85-1.01-2.04-1.63-3.78-1.63h-6.38
			c-1.74,0-2.93,0.62-3.78,1.63c-0.67,0.85-1.13,1.92-1.13,3.39v18.4h-3.16c-1.18,0-2.09,0.34-2.77,0.9
			c-0.74,0.68-1.07,1.58-1.07,2.93v3.89c0,1.36,0.33,2.27,1.07,2.93c0.68,0.57,1.58,0.91,2.77,0.91h3.16v28.16
			c0,7.22,1.98,11.74,5.65,15.35c3.38,3.33,7.79,5.42,15.46,5.42h4.8c1.18,0,2.08-0.34,2.76-0.91c0.74-0.67,1.18-1.57,1.18-2.93
			v-4.91c0-1.35-0.45-2.26-1.18-2.93c-0.68-0.57-1.58-0.91-2.76-0.91h-0.68c-3.05,0-5.14-0.79-6.56-2.15
			c-1.69-1.58-2.54-4-2.54-7.17v-27.03h10.28c1.18,0,2.09-0.34,2.76-0.91c0.74-0.67,1.07-1.58,1.07-2.93v-3.89
			c0-1.36-0.34-2.26-1.07-2.93C230.75,269.48,229.84,269.14,228.65,269.14z"/>
		<path d="M314.46,258.35c1.18,0,2.08-0.34,2.76-0.91c0.74-0.67,1.07-1.58,1.07-2.93v-5.25
			c0-2.04-0.39-3.06-1.07-3.79c-0.61-0.67-1.64-1.06-2.76-1.06c-0.91,0-1.81,0.11-3.33,0.27l-45.05,4.46
			c-1.29,0.12-1.92,0.51-2.37,1.02c-0.52,0.57-0.73,1.29-0.73,2.31v2.94c0,1.13,0.22,1.63,0.62,2.09c0.5,0.56,1.24,0.84,2.25,0.84
			H314.46z"/>
		<path d="M58.65,203.99c-3.78,2.21-8.47,3.23-12.59,3.23c-1.75,0-2.54,0.34-3.16,0.96
			c-0.68,0.67-1.02,1.69-1.02,3.1v1.97h1.41c7.56,0,14.56-1.18,22.24-7.22l25-19.54c3.56,4.07,12.53,9.71,23.14,9.71
			c5.99,0,9.82-1.46,15.35-2.87c4.29-1.07,8.47-2.04,17.61-2.04h26.47c13.55,0,20.1-2.82,27.32-6.88
			c15.7-8.81,29.07-23.71,36.64-40.81c-1.98-1.25-3.84-2.38-5.42-3.45c-8.47,17.84-21.34,30.83-34.55,38.33
			c-6.26,3.56-11.91,5.87-24.1,5.87h-26.36c-9.42,0-15.35,1.24-19.97,2.42c-4.97,1.3-8.14,2.6-13.15,2.6
			c-7.45,0-14.35-3.67-17.68-7.17l6.22-4.91l-3.1-4.12c-1.81,1.3-23.88,17.61-28.51,21.28l-0.27-0.17c0.11-1.13,0.11-2.14,0.11-3.15
			c0-12.42-5.76-15.41-14.51-18.91l-5.93,3.51c12.02,4,15.01,7.22,15.01,16.2C64.85,199.03,62.32,201.85,58.65,203.99z"/>
		<path d="M2.26,195.36c4.23,0,4.73-2.54,4.73-4.97c0-1.63-0.05-3.5-0.05-5.53
			c0.05-4.68,0.23-8.86,7.79-12.25c3.05-1.35,18-7.45,29.13-12.19c3.28-1.41,6.32-2.59,9.71-2.59c3.78,0,8.13,1.63,13.54,4.86
			c4.58,2.71,9.38,6.38,13.16,10.61l4.79-3.67c-4.12-4.85-9.82-9.2-15.52-12.58c-5.7-3.38-10.78-5.37-15.07-5.37
			c-1.86,0-3.4,0.34-4.69,0.68c-1.53,0.4-2.94,0.85-4.75,0.85c-2.08,0-3.84-0.5-6.38-3.44c-0.95-1.07-7.06-8.01-8.35-10.04
			c-0.63-0.96-1.75-2.89-1.75-5.14c0-0.96,0.17-2.09,0.73-3.1c5.25,4.07,11.75,6.55,19.65,7.51l-1.08-5.36
			c-11.34-2.99-23.43-12.98-23.43-19.42c0-1.36,0.34-2.31,0.84-3.51c4.4,4.07,14.74,8.31,20.32,8.31c3.05,0,5.54-1.02,7.9-1.98
			c2.26-0.9,4.52-1.79,7.56-1.79c7.23,0,16.14,3.49,23.99,6.82c0.46,0.17,0.96,0.29,1.46,0.29c1.25,0,2.21-0.57,2.83-1.76l1.02-1.86
			c-8.63-5.02-22.41-10.39-29.59-10.39c-3.27,0-5.64,0.85-7.9,1.75c-2.54,1.01-4.74,2.08-7.06,2.08c-5.7,0-20.32-5.64-20.32-11.12
			c0-6.44,23.25-8.92,25.8-8.92l2.31-5.25c-16.87,0-36.97,5.92-36.97,13.77c0,2.26,1.3,3.38,1.3,5.47c0,2.83-1.3,4.75-1.3,7.9
			c0,2.09,1.25,4.74,2.71,7.06c1.58,2.43,3.45,4.01,3.45,6.05c0,1.52-1.02,3.32-1.02,6.88c0,7.62,4.35,12.25,12.81,21.33l1.69,1.81
			c-7,2.71-20.04,8.35-23.09,9.65C2.65,171.2,0,176.57,0,185.04c0,3.27,0,6.99,0.22,10.32H2.26z"/>
		<path d="M1068.66,281.92c-3.53-2.16-7.59-3.24-12.18-3.24c-4.58,0-8.64,1.08-12.18,3.24
			c-3.54,2.16-6.28,5.2-8.25,9.13c-1.97,3.93-2.95,8.44-2.95,13.55c0,5.11,0.96,9.64,2.9,13.6c1.93,3.96,4.67,7.02,8.2,9.18
			c3.53,2.16,7.59,3.24,12.18,3.24c4.65,0,8.74-1.1,12.27-3.29c3.54-2.19,6.27-5.25,8.2-9.18c1.93-3.93,2.9-8.48,2.9-13.65
			c0-5.11-0.97-9.61-2.9-13.5C1074.93,287.11,1072.2,284.08,1068.66,281.92z M1071.26,315.46c-1.41,3.18-3.4,5.65-5.99,7.41
			c-2.59,1.77-5.55,2.65-8.89,2.65c-3.34,0-6.28-0.87-8.84-2.6c-2.55-1.73-4.53-4.19-5.94-7.36c-1.41-3.17-2.11-6.83-2.11-10.95
			c0-4.06,0.7-7.67,2.11-10.85c1.41-3.18,3.39-5.63,5.94-7.36c2.55-1.74,5.5-2.6,8.84-2.6c3.34,0,6.3,0.85,8.89,2.55
			c2.59,1.7,4.58,4.12,5.99,7.27c1.41,3.14,2.11,6.74,2.11,10.8C1073.38,308.6,1072.67,312.28,1071.26,315.46z"/>
		<path d="M1012.98,281.92c-3.53-2.16-7.59-3.24-12.18-3.24c-4.58,0-8.64,1.08-12.18,3.24
			c-3.54,2.16-6.28,5.2-8.25,9.13c-1.97,3.93-2.95,8.44-2.95,13.55c0,5.11,0.97,9.64,2.9,13.6c1.93,3.96,4.66,7.02,8.2,9.18
			c3.54,2.16,7.59,3.24,12.18,3.24c4.65,0,8.74-1.1,12.27-3.29c3.54-2.19,6.27-5.25,8.2-9.18c1.93-3.93,2.9-8.48,2.9-13.65
			c0-5.11-0.97-9.61-2.9-13.5C1019.25,287.11,1016.52,284.08,1012.98,281.92z M1015.59,315.46c-1.41,3.18-3.4,5.65-5.99,7.41
			c-2.59,1.77-5.55,2.65-8.89,2.65c-3.34,0-6.28-0.87-8.84-2.6c-2.55-1.73-4.53-4.19-5.94-7.36c-1.41-3.17-2.11-6.83-2.11-10.95
			c0-4.06,0.7-7.67,2.11-10.85c1.41-3.18,3.39-5.63,5.94-7.36c2.55-1.74,5.5-2.6,8.84-2.6c3.34,0,6.3,0.85,8.89,2.55
			c2.59,1.7,4.58,4.12,5.99,7.27c1.41,3.14,2.11,6.74,2.11,10.8C1017.7,308.6,1016.99,312.28,1015.59,315.46z"/>
		<path d="M1128.37,289.09c-1.64-3.21-4.04-5.74-7.22-7.61c-3.18-1.87-6.69-2.8-10.56-2.8
			c-4.26,0-8.04,1.08-11.34,3.24c-3.31,2.16-5.88,5.19-7.71,9.08c-1.83,3.89-2.75,8.4-2.75,13.5c0,5.11,0.92,9.64,2.75,13.6
			c1.83,3.96,4.42,7.04,7.76,9.23c3.34,2.19,7.2,3.29,11.59,3.29c3.93,0,7.46-0.93,10.61-2.8c3.14-1.87,5.5-4.43,7.07-7.71
			l0.59,9.33h5.2v-71.2h-5.99V289.09z M1126.26,315.61c-1.41,3.14-3.39,5.58-5.94,7.32c-2.55,1.73-5.47,2.6-8.74,2.6
			c-5.04,0-9.03-1.9-11.98-5.7c-2.95-3.8-4.42-8.87-4.42-15.22c0-6.41,1.51-11.49,4.52-15.22c3.01-3.73,7-5.6,11.98-5.6
			c3.34,0,6.27,0.88,8.79,2.65c2.52,1.77,4.47,4.22,5.84,7.37c1.37,3.14,2.06,6.78,2.06,10.9
			C1128.37,308.83,1127.66,312.46,1126.26,315.61z"/>
		<polygon points="856.82,341.73 862.12,341.73 869.68,319.83 861.83,319.83 		"/>
		<path d="M925.29,266.46c3.99-2.59,8.61-3.88,13.85-3.88c8.77,0,15.61,3.9,20.52,11.69l4.81-3.63
			c-2.88-4.45-6.47-7.82-10.75-10.11c-4.29-2.29-9.15-3.44-14.58-3.44c-6.48,0-12.23,1.57-17.23,4.71
			c-5.01,3.14-8.9,7.51-11.69,13.11c-2.78,5.6-4.17,11.93-4.17,19c0,7.07,1.47,13.39,4.42,18.95c2.95,5.57,7.07,9.92,12.37,13.06
			c5.3,3.14,11.36,4.71,18.17,4.71c8.31,0,16.1-2.16,23.37-6.48v-30.84h-25.73v5.3h19.35v22.29c-4.91,2.82-10.47,4.22-16.69,4.22
			c-5.56,0-10.51-1.33-14.83-3.98c-4.32-2.65-7.69-6.38-10.11-11.2c-2.42-4.81-3.63-10.29-3.63-16.45c0-6.09,1.1-11.47,3.29-16.15
			C918.2,272.68,921.3,269.04,925.29,266.46z"/>
		<polygon points="1198.87,304.66 1198.87,329.45 1204.86,329.45 1204.86,304.66 1204.86,279.86
			1198.87,279.86 		"/>
		<path d="M1287.97,302.55c0-7.33-1.88-13.14-5.65-17.43c-3.77-4.29-8.85-6.43-15.27-6.43
			c-4.58,0-8.61,1.07-12.08,3.19c-3.47,2.13-6.15,5.14-8.05,9.03c-1.9,3.9-2.85,8.4-2.85,13.5c0,5.17,0.98,9.74,2.95,13.7
			c1.96,3.96,4.75,7.04,8.35,9.23c3.6,2.19,7.76,3.29,12.47,3.29c4.12,0,7.92-0.85,11.39-2.55c3.47-1.7,6.28-4.09,8.44-7.17
			l-4.12-3.54c-2.03,2.68-4.37,4.71-7.02,6.09c-2.65,1.38-5.55,2.06-8.69,2.06c-5.3,0-9.54-1.82-12.72-5.45
			c-3.18-3.63-4.8-8.62-4.86-14.98h37.61C1287.93,304.51,1287.97,303.66,1287.97,302.55z M1250.55,299.99
			c0.65-5.17,2.41-9.16,5.25-11.98c2.85-2.82,6.56-4.22,11.15-4.22c4.58,0,8.18,1.42,10.8,4.27c2.62,2.85,3.99,6.83,4.12,11.93
			H1250.55z"/>
		<path d="M1226.71,260.91c-2.52,2.55-3.78,6.09-3.78,10.61v8.35h-8.54v5.11h8.54v44.48h5.99v-44.48h12.37
			v-5.11h-12.37v-7.95c0-3.01,0.8-5.35,2.41-7.02c1.6-1.67,3.85-2.5,6.73-2.5c1.7,0,3.5,0.33,5.4,0.98v-5.4
			c-1.77-0.59-3.86-0.88-6.29-0.88C1232.72,257.08,1229.23,258.36,1226.71,260.91z"/>
		<path d="M839.67,289.09c-1.64-3.21-4.04-5.74-7.22-7.61c-3.18-1.87-6.69-2.8-10.56-2.8
			c-4.26,0-8.04,1.08-11.34,3.24c-3.31,2.16-5.88,5.19-7.71,9.08c-1.83,3.89-2.75,8.4-2.75,13.5c0,5.11,0.92,9.64,2.75,13.6
			c1.83,3.96,4.42,7.04,7.76,9.23c3.34,2.19,7.2,3.29,11.59,3.29c3.93,0,7.46-0.93,10.61-2.8c3.14-1.87,5.5-4.43,7.07-7.71
			l0.59,9.33h5.2v-71.2h-5.99V289.09z M837.56,315.61c-1.41,3.14-3.39,5.58-5.94,7.32c-2.55,1.73-5.47,2.6-8.74,2.6
			c-5.04,0-9.03-1.9-11.98-5.7c-2.95-3.8-4.42-8.87-4.42-15.22c0-6.41,1.5-11.49,4.52-15.22c3.01-3.73,7-5.6,11.98-5.6
			c3.34,0,6.27,0.88,8.79,2.65c2.52,1.77,4.47,4.22,5.84,7.37c1.37,3.14,2.06,6.78,2.06,10.9
			C839.67,308.83,838.97,312.46,837.56,315.61z"/>
		<path d="M73.38,19.53c0-0.45-0.4-0.9-0.95-0.9c-0.52,0-0.79,0.34-1.3,0.74c-2.15,1.86-4.07,3.72-6.09,6.04
			c-2.88,3.22-5.3,7.5-7.28,12.19l3.04,1.86c2.09-3.11,8.81-13.72,12.25-19.08C73.26,20.05,73.38,19.76,73.38,19.53z"/>
		<polygon points="1176.98,293.85 1176.98,329.45 1182.97,329.45 1182.97,293.85 1182.97,258.26
			1176.98,258.26 		"/>
		<path d="M1201.72,260.52c-1.25,0-2.26,0.38-3.04,1.13c-0.79,0.75-1.18,1.75-1.18,3
			c0,1.18,0.39,2.18,1.18,2.99c0.79,0.82,1.8,1.23,3.04,1.23c1.24,0,2.31-0.41,3.19-1.23c0.88-0.82,1.33-1.82,1.33-2.99
			c0-1.24-0.43-2.24-1.28-3C1204.11,260.89,1203.03,260.52,1201.72,260.52z"/>
		<path d="M190.95,257.45c0.73-0.67,1.07-1.58,1.07-2.93v-4.98c0-1.35-0.34-2.26-1.07-2.93
			c-0.68-0.57-1.58-0.9-2.76-0.9H59.49c-2.15,0-3.5,0.73-4.46,1.86c-0.79,0.97-1.24,2.03-1.24,3.89v51.26h-0.29
			c0,0-28.05-50.01-29.41-52.32c-0.96-1.65-2.03-2.77-3.44-3.62c-1.41-0.79-2.88-1.3-5.7-1.3H5.7c-2.15,0-3.5,0.73-4.46,1.86
			c-0.79,0.96-1.24,2.04-1.24,3.9v72.64c0,1.86,0.45,2.94,1.24,3.9c0.96,1.13,2.31,1.86,4.46,1.86h5.25c2.15,0,3.5-0.73,4.46-1.86
			c0.79-0.96,1.24-2.04,1.24-3.9V271.4h0.29c0,0,29.13,51.59,30.31,53.51c1.64,2.7,4.4,4.74,8.36,4.74h8.98
			c2.14,0,3.49-0.73,4.45-1.86c0.8-0.96,1.24-2.04,1.24-3.9v-65.53h117.92C189.37,258.35,190.27,258.01,190.95,257.45z"/>
		<path d="M106.51,266.99c-19.59,0-30.6,15.3-30.6,31.44c0,17.22,11.8,32.35,30.7,32.35
			c9.43,0,18.68-3.56,23.99-9.82c2.32-2.72,4.19-6.5,4.19-8.81c0-0.79-0.17-1.47-0.62-1.97c-0.45-0.57-1.13-0.91-2.31-0.91h-9.09
			c-1.8,0-3.05,0.67-3.95,2.04c-2.65,3.89-6.5,5.93-12.14,5.93c-8.46,0-13.94-6.44-14.33-13.5h39.29c1.75,0,2.99-0.39,3.83-1.24
			c0.97-0.9,1.42-2.2,1.42-4.62c0-7.4-2.31-15.08-7.17-20.94C124.75,271,117.17,266.99,106.51,266.99z M92.45,291.71
			c0.74-6.94,6.04-12.13,14.11-12.13c7.91,0,13.38,5.19,14.11,12.13H92.45z"/>
		<path d="M20.15,65.2c0,0.4,0.28,0.9,0.9,0.9c0.39,0,0.73-0.16,1.47-0.45l20.65-7l-1.01-3.39
			c-8.41,1.41-14.51,3.56-21.45,8.97C20.31,64.58,20.15,64.81,20.15,65.2z"/>
		<path d="M32.68,24.9c-3.16-2.43-6.71-4.4-10.89-6.11l-0.73-0.17c-0.62,0-0.9,0.45-0.9,0.85
			c0,0.34,0.11,0.62,0.62,1.07c4.91,4.17,14.4,12.14,17.33,14.56l2.36-2.71C37.93,29.41,35.32,26.93,32.68,24.9z"/>
		<path d="M409.75,266.46c3.99-2.59,8.61-3.88,13.85-3.88c8.77,0,15.61,3.9,20.52,11.69l4.81-3.63
			c-2.88-4.45-6.47-7.82-10.75-10.11c-4.29-2.29-9.15-3.44-14.58-3.44c-6.48,0-12.23,1.57-17.23,4.71
			c-5.01,3.14-8.9,7.51-11.69,13.11c-2.78,5.6-4.17,11.93-4.17,19c0,7.07,1.47,13.39,4.42,18.95c2.95,5.57,7.07,9.92,12.37,13.06
			c5.3,3.14,11.36,4.71,18.17,4.71c8.31,0,16.1-2.16,23.37-6.48v-30.84h-25.73v5.3h19.34v22.29c-4.91,2.82-10.47,4.22-16.69,4.22
			c-5.56,0-10.51-1.33-14.83-3.98c-4.32-2.65-7.69-6.38-10.12-11.2c-2.42-4.81-3.63-10.29-3.63-16.45c0-6.09,1.1-11.47,3.29-16.15
			C402.67,272.68,405.76,269.04,409.75,266.46z"/>
		<path d="M612.83,289.09c-1.64-3.21-4.04-5.74-7.22-7.61c-3.18-1.87-6.69-2.8-10.56-2.8
			c-4.26,0-8.04,1.08-11.34,3.24c-3.31,2.16-5.88,5.19-7.71,9.08c-1.83,3.89-2.75,8.4-2.75,13.5c0,5.11,0.92,9.64,2.75,13.6
			c1.83,3.96,4.42,7.04,7.76,9.23c3.34,2.19,7.2,3.29,11.59,3.29c3.93,0,7.46-0.93,10.61-2.8c3.14-1.87,5.5-4.43,7.07-7.71
			l0.59,9.33h5.2v-71.2h-5.99V289.09z M610.72,315.61c-1.41,3.14-3.39,5.58-5.94,7.32c-2.55,1.73-5.47,2.6-8.74,2.6
			c-5.04,0-9.03-1.9-11.98-5.7c-2.95-3.8-4.42-8.87-4.42-15.22c0-6.41,1.5-11.49,4.52-15.22c3.01-3.73,7-5.6,11.98-5.6
			c3.34,0,6.27,0.88,8.79,2.65c2.52,1.77,4.47,4.22,5.84,7.37c1.38,3.14,2.06,6.78,2.06,10.9
			C612.83,308.83,612.13,312.46,610.72,315.61z"/>
		<path d="M497.44,281.92c-3.53-2.16-7.59-3.24-12.18-3.24c-4.58,0-8.64,1.08-12.18,3.24
			c-3.54,2.16-6.29,5.2-8.25,9.13c-1.96,3.93-2.95,8.44-2.95,13.55c0,5.11,0.96,9.64,2.9,13.6c1.93,3.96,4.66,7.02,8.2,9.18
			c3.53,2.16,7.59,3.24,12.18,3.24c4.65,0,8.74-1.1,12.27-3.29c3.54-2.19,6.27-5.25,8.2-9.18c1.93-3.93,2.9-8.48,2.9-13.65
			c0-5.11-0.97-9.61-2.9-13.5C503.71,287.11,500.98,284.08,497.44,281.92z M500.05,315.46c-1.41,3.18-3.41,5.65-5.99,7.41
			c-2.59,1.77-5.55,2.65-8.89,2.65c-3.34,0-6.29-0.87-8.84-2.6c-2.55-1.73-4.53-4.19-5.94-7.36c-1.41-3.17-2.11-6.83-2.11-10.95
			c0-4.06,0.7-7.67,2.11-10.85c1.41-3.18,3.39-5.63,5.94-7.36c2.55-1.74,5.5-2.6,8.84-2.6c3.34,0,6.3,0.85,8.89,2.55
			c2.58,1.7,4.58,4.12,5.99,7.27c1.41,3.14,2.11,6.74,2.11,10.8C502.16,308.6,501.45,312.28,500.05,315.46z"/>
		<path d="M667.38,260.91c-2.52,2.55-3.78,6.09-3.78,10.61v8.35h-8.54v5.11h8.54v44.48h5.99v-44.48h12.37
			v-5.11h-12.37v-7.95c0-3.01,0.8-5.35,2.41-7.02c1.6-1.67,3.85-2.5,6.73-2.5c1.7,0,3.5,0.33,5.4,0.98v-5.4
			c-1.77-0.59-3.86-0.88-6.29-0.88C673.39,257.08,669.9,258.36,667.38,260.91z"/>
		<path d="M724.29,281.92c-3.53-2.16-7.59-3.24-12.18-3.24c-4.58,0-8.64,1.08-12.18,3.24
			c-3.54,2.16-6.28,5.2-8.25,9.13c-1.97,3.93-2.95,8.44-2.95,13.55c0,5.11,0.96,9.64,2.9,13.6c1.93,3.96,4.67,7.02,8.2,9.18
			c3.53,2.16,7.59,3.24,12.18,3.24c4.65,0,8.74-1.1,12.27-3.29c3.54-2.19,6.27-5.25,8.2-9.18c1.93-3.93,2.9-8.48,2.9-13.65
			c0-5.11-0.97-9.61-2.9-13.5C730.55,287.11,727.82,284.08,724.29,281.92z M726.89,315.46c-1.41,3.18-3.4,5.65-5.99,7.41
			c-2.59,1.77-5.55,2.65-8.89,2.65c-3.34,0-6.28-0.87-8.84-2.6c-2.55-1.73-4.53-4.19-5.94-7.36c-1.41-3.17-2.11-6.83-2.11-10.95
			c0-4.06,0.7-7.67,2.11-10.85c1.41-3.18,3.39-5.63,5.94-7.36c2.55-1.74,5.5-2.6,8.84-2.6c3.34,0,6.3,0.85,8.89,2.55
			c2.59,1.7,4.58,4.12,5.99,7.27c1.41,3.14,2.11,6.74,2.11,10.8C729,308.6,728.29,312.28,726.89,315.46z"/>
		<path d="M553.12,281.92c-3.54-2.16-7.6-3.24-12.18-3.24c-4.58,0-8.64,1.08-12.18,3.24
			c-3.53,2.16-6.28,5.2-8.25,9.13c-1.96,3.93-2.95,8.44-2.95,13.55c0,5.11,0.97,9.64,2.9,13.6c1.93,3.96,4.66,7.02,8.2,9.18
			c3.54,2.16,7.59,3.24,12.18,3.24c4.65,0,8.74-1.1,12.28-3.29c3.53-2.19,6.27-5.25,8.2-9.18c1.93-3.93,2.9-8.48,2.9-13.65
			c0-5.11-0.97-9.61-2.9-13.5C559.39,287.11,556.66,284.08,553.12,281.92z M555.73,315.46c-1.41,3.18-3.4,5.65-5.99,7.41
			c-2.59,1.77-5.55,2.65-8.89,2.65c-3.34,0-6.29-0.87-8.84-2.6c-2.55-1.73-4.53-4.19-5.94-7.36c-1.41-3.17-2.11-6.83-2.11-10.95
			c0-4.06,0.7-7.67,2.11-10.85c1.41-3.18,3.39-5.63,5.94-7.36c2.55-1.74,5.5-2.6,8.84-2.6c3.34,0,6.3,0.85,8.89,2.55
			c2.58,1.7,4.58,4.12,5.99,7.27c1.41,3.14,2.11,6.74,2.11,10.8C557.84,308.6,557.13,312.28,555.73,315.46z"/>
		<path d="M779.97,281.92c-3.53-2.16-7.59-3.24-12.18-3.24c-4.58,0-8.64,1.08-12.18,3.24
			c-3.54,2.16-6.28,5.2-8.25,9.13c-1.97,3.93-2.95,8.44-2.95,13.55c0,5.11,0.97,9.64,2.9,13.6c1.93,3.96,4.67,7.02,8.2,9.18
			c3.54,2.16,7.59,3.24,12.18,3.24c4.65,0,8.74-1.1,12.27-3.29c3.54-2.19,6.27-5.25,8.2-9.18c1.93-3.93,2.9-8.48,2.9-13.65
			c0-5.11-0.97-9.61-2.9-13.5C786.23,287.11,783.5,284.08,779.97,281.92z M782.57,315.46c-1.41,3.18-3.4,5.65-5.99,7.41
			c-2.59,1.77-5.55,2.65-8.89,2.65c-3.34,0-6.28-0.87-8.84-2.6c-2.55-1.73-4.53-4.19-5.94-7.36c-1.41-3.17-2.11-6.83-2.11-10.95
			c0-4.06,0.7-7.67,2.11-10.85c1.41-3.18,3.39-5.63,5.94-7.36c2.55-1.74,5.5-2.6,8.84-2.6c3.34,0,6.3,0.85,8.89,2.55
			c2.59,1.7,4.58,4.12,5.99,7.27c1.41,3.14,2.11,6.74,2.11,10.8C784.68,308.6,783.97,312.28,782.57,315.46z"/>
	</g>
</g>
<g id="Guides" style="display:none;">
</g>
<g id="Clear-space" style="display:none;">
	<path style="display:inline;opacity:0.2;fill:#00699F;" d="M-140.54-140.54v610.54h1569.05v-610.54H-140.54z M1287.97,329.45H0V0
		h1287.97V329.45z"/>
</g>
</svg>
