<?xml version="1.0" encoding="utf-8"?>
<!-- Generator: Adobe Illustrator 25.0.0, SVG Export Plug-In . SVG Version: 6.00 Build 0)  -->
<svg version="1.1" id="Layer_1" xmlns="http://www.w3.org/2000/svg" xmlns:xlink="http://www.w3.org/1999/xlink" x="0px" y="0px"
	 viewBox="0 0 160 113" style="enable-background:new 0 0 160 113;" xml:space="preserve">
<style type="text/css">
	.st0{fill:#FFFFFF;}
	.st1{fill-rule:evenodd;clip-rule:evenodd;fill:#FFFFFF;}
</style>
<g>
	<path class="st0" d="M160,91.15V71.64h-4.96v8.03h-8.09v-8.03h-4.96v19.52h4.96v-7.58h8.09v7.58H160z M139.87,75.62v-4.01H123.2
		v4.01h5.83v15.53h4.96V75.62H139.87z M116.54,91.15h5.63l-4.1-6.44c2.29-1.14,3.54-3.29,3.54-6.27c0-4.35-2.96-6.8-8.11-6.8h-8.73
		v3.9h4.96h1.45h2.31c2.15,0,3.4,1.03,3.4,3.07c0,2.06-1.25,3.15-3.4,3.15h-2.31h-1.45h-4.96v9.4h4.96v-5.49h3.76h0.14L116.54,91.15
		z M91.64,75.62c3.01,0,5.41,2.48,5.41,5.77c0,3.29-2.4,5.83-5.41,5.83c-2.98,0-5.52-2.54-5.52-5.83
		C86.12,78.11,88.63,75.62,91.64,75.62z M91.58,71.47c-6.02,0-10.54,4.21-10.54,9.9c0,5.72,4.52,10.01,10.54,10.01
		c6.05,0,10.57-4.32,10.57-10.01C102.15,75.71,97.63,71.47,91.58,71.47z M74.19,91.15l6.44-19.52h-5.07l-3.76,14.36l-3.82-14.36
		h-4.85l-3.74,14.36l-3.82-14.36h-5.3l6.38,19.52h5.13l3.68-13.49l3.62,13.49H74.19z M48.34,91.15V71.64h-4.96v19.52H48.34z
		 M39.48,91.15V71.64h-4.63v12.04l-9.01-12.04h-4.38v19.52h4.66V79.14l8.98,12.02H39.48z M17.9,71.64h-4.93v11.32
		c0,2.65-1.59,4.27-3.93,4.27c-2.37,0-4.07-1.62-4.07-4.27V71.64H0v11.32c0,5.16,3.51,8.42,9,8.42c5.46,0,8.89-3.26,8.89-8.42V71.64
		z"/>
	<path class="st0" d="M159.97,101.73v-6.38h-2.33v0.96h1.25v5.43H159.97z M157.31,96.17v-0.82h-4.64v1.86h0.95l0.01-0.89h2.48
		l-2.48,5.42h1.14L157.31,96.17z M149.36,98.63c-0.78,0-1.25-0.45-1.25-1.18c0-0.78,0.52-1.22,1.3-1.22c0.92,0,1.33,0.63,1.32,1.19
		C150.73,98.07,150.22,98.63,149.36,98.63z M149.19,101.78c1.69,0,2.75-1.33,2.75-3.37c0-1.96-0.98-3.11-2.6-3.11
		c-1.36,0-2.24,0.82-2.24,2.14c0,1.24,0.78,2.03,2.05,2.03c0.8,0,1.4-0.31,1.74-0.9c0.04,1.38-0.54,2.31-1.78,2.31
		c-0.48,0-1.02-0.15-1.41-0.4l-0.42,0.81C147.8,101.59,148.56,101.78,149.19,101.78z M145.63,101.73v-6.38h-2.33v0.96h1.25v5.43
		H145.63z M139.84,100.61c-0.33,0-0.57,0.25-0.57,0.59c0,0.36,0.25,0.61,0.57,0.61c0.33,0,0.57-0.26,0.57-0.61
		C140.42,100.86,140.17,100.61,139.84,100.61z M139.28,96.31v-0.97h-5.12v0.97h2.02v5.42h1.08v-5.42H139.28z M131.34,95.3
		c-1.39,0-2.33,0.68-2.33,1.78c0,2.27,3.45,1.48,3.45,2.9c0,0.49-0.45,0.77-1.19,0.77c-0.68,0-1.5-0.33-2.16-0.93l-0.46,0.93
		c0.66,0.6,1.61,1.01,2.61,1.01c1.4,0,2.41-0.7,2.41-1.84c0.01-2.3-3.44-1.55-3.44-2.95c0-0.43,0.41-0.67,1.04-0.67
		c0.48,0,1.18,0.17,1.87,0.59l0.45-0.95C132.99,95.57,132.17,95.3,131.34,95.3z M127.82,96.31v-0.97h-4.56v6.38h4.67v-0.97h-3.59V99
		h3.12v-0.97h-3.12v-1.72H127.82z"/>
	<rect x="123.24" y="103.71" class="st1" width="36.76" height="2.13"/>
	<path class="st0" d="M85.15,45.18c2.29,0,4.68-1.16,6.38-3.59c0.65-0.91,1.01-2.15,1.17-2.83c0.23-1.02,0.37-2.12,0.37-3.31h0
		V17.18h-8.19v18.43c0,4.06-3.99,5.46-6.75,4.2c-0.41-0.2-0.43,0.09-0.3,0.4C79.5,43.76,82.4,45.18,85.15,45.18"/>
	<path class="st0" d="M84.69,46.47c-3.7,0-7.63-2.62-9.1-8.28c-0.24-0.97-0.6-3.15-0.6-4.97c0-0.19,0-0.45,0-0.45v-15.6h-8.06v18.58
		h0c0.06,11.86,12.48,15.44,20.03,10.77c0.47-0.25,0.49-0.56-0.12-0.35C86.13,46.37,85.4,46.47,84.69,46.47
		C84.69,46.47,84.69,46.47,84.69,46.47"/>
	<path class="st0" d="M105.14,14.87l-0.01-3.96h-0.01l0-0.16h-3.58V7.92l-0.37,0.02c-0.74,0.06-1.5,0.08-2.25,0.08
		c-10.45,0-18.67-5.43-18.75-5.48L80,2.42l-0.19,0.13c-0.08,0.05-8.3,5.48-18.75,5.48c-0.75,0-1.51-0.02-2.25-0.08l-0.37-0.02v2.82
		h-3.58l0,4.13v19.09c0,12.99,19.01,23.96,24.1,26.19l1.02,0.45l1.02-0.45c5.1-2.23,24.13-13.21,24.13-26.19L105.14,14.87z
		 M101.82,33.96c0,10.76-14.39,21.29-21.59,24.44l-0.26,0.11l-0.26-0.11c-7.19-3.15-21.56-13.67-21.56-24.44V14.87h0.05h3.2V12.4
		c0.57,0.03,1.14,0.05,1.72,0.05c8.71,0,15.71-4.15,16.86-4.88c1.14,0.72,8.14,4.88,16.85,4.88c0.57,0,1.15-0.01,1.72-0.05v2.47
		h3.21h0.06V33.96z"/>
</g>
</svg>
