<svg width="16" height="16" viewBox="0 0 16 16" fill="none" xmlns="http://www.w3.org/2000/svg">
<path d="M8 16C12.4183 16 16 12.4183 16 8C16 3.58172 12.4183 0 8 0C3.58172 0 0 3.58172 0 8C0 12.4183 3.58172 16 8 16Z" fill="#F0F0F0"/>
<path d="M0 8.00006C0 11.0324 1.68716 13.6705 4.17391 15.0273V0.972778C1.68716 2.32962 0 4.96772 0 8.00006Z" fill="#F0F0F0"/>
<path d="M7.99992 0C6.61398 0 5.31042 0.352594 4.17383 0.972719V15.0273C5.31042 15.6474 6.61398 16 7.99992 16C12.4182 16 15.9999 12.4183 15.9999 8C15.9999 3.58175 12.4182 0 7.99992 0Z" fill="#02411C"/>
<path d="M11.4206 9.32306C10.4085 10.0543 8.99522 9.82671 8.26397 8.81465C7.53266 7.80253 7.76031 6.38924 8.77241 5.65799C9.08797 5.42999 9.44253 5.29521 9.80325 5.24837C9.10928 5.14459 8.37569 5.30096 7.76203 5.74437C6.51641 6.64443 6.23619 8.38384 7.13622 9.62953C8.03625 10.8751 9.77569 11.1554 11.0214 10.2552C11.6351 9.81184 12.0139 9.16456 12.1332 8.47303C11.9755 8.80071 11.7362 9.09503 11.4206 9.32306V9.32306Z" fill="#F0F0F0"/>
<path d="M11.3773 5.21753L11.9474 5.83194L12.7079 5.47969L12.2997 6.21169L12.8698 6.82615L12.0474 6.66412L11.6392 7.39619L11.5392 6.564L10.7168 6.40197L11.4773 6.04972L11.3773 5.21753Z" fill="#F0F0F0"/>
</svg>
